:SAMPLES-PER-SECOND 30
:FULLY-SPECIFIED
:DEGREES
499
root  73.032 40.2496 -1.93971 -111.135 -86.968 106.268
RightUpLeg  -1.38604 -9.60409 -5.69464
RightLeg  9.91032 -2.51396 2.80362
RightFoot  -5.77724 -0.0543908 0.392851
RightToes  2.32829e-010 0 -3.6325e-017
Spine  8.00563 -0.0889114 -0.74706
Spine1  -2.8167 -0.0759262 0.184895
HEad  -4.90956 4.51202 1.03059
LeftShoulder1  0.672721 -2.77764 -2.55234
LeftArm  -16.6405 7.93537 -1.41358
LeftForeArm  0.330241 2.37414 -1.95241
LeftHand  -0.244104 0.0205437 5.32207
RightShoulder  0.260538 -1.11685 2.83844
RightArm  -22.0199 -2.07232 -0.111956
RightForeArm  -1.04705 0.0862831 2.34225
RightHand  -0.983073 2.29786 -14.9824
LeftUpLeg  0.358999 4.03295 0.111225
LeftLeg  5.907 11.6845 -2.15779
LeftFoot  -2.57353 -0.00346829 0.269687
LeftToes  1.42787e-010 7.94111e-011 2.6399e-011
500
root  73.0456 40.2479 -1.9333 -110.357 -86.9684 105.418
RightUpLeg  -1.32807 -9.7213 -5.75577
RightLeg  9.89833 -2.42914 2.88824
RightFoot  -5.61446 -0.0427398 0.211984
RightToes  2.32829e-010 0 -3.6325e-017
Spine  7.74244 -0.221958 -0.689963
Spine1  -2.38208 -0.156515 -0.121322
HEad  -4.51087 4.6401 1.13524
LeftShoulder1  0.661412 -2.76144 -2.37994
LeftArm  -16.7 7.84731 -1.03712
LeftForeArm  0.244772 2.33173 -1.93332
LeftHand  -0.244104 0.0205437 5.32207
RightShoulder  0.283801 -0.878576 2.71775
RightArm  -22.2696 -1.93866 0.0100398
RightForeArm  -1.18885 0.0392413 2.27806
RightHand  -0.962208 2.12322 -14.9991
LeftUpLeg  0.449813 3.97774 0.0988973
LeftLeg  5.82574 11.6937 -2.18732
LeftFoot  -2.52584 0.000968494 0.194497
LeftToes  1.42787e-010 7.94111e-011 2.6399e-011
501
root  73.0546 40.248 -1.92135 -108.722 -86.9838 103.789
RightUpLeg  -1.33633 -9.80857 -5.80687
RightLeg  9.89103 -2.45165 2.94139
RightFoot  -5.55692 -0.0371327 0.124935
RightToes  2.32829e-010 0 -3.6325e-017
Spine  7.41586 -0.32562 -0.560053
Spine1  -1.94161 -0.187764 -0.506881
HEad  -4.4005 4.76774 1.32559
LeftShoulder1  0.644366 -2.83874 -1.93397
LeftArm  -16.5742 7.88842 -0.937445
LeftForeArm  0.0996152 2.15161 -2.01217
LeftHand  -0.244104 0.0205437 5.32207
RightShoulder  0.266965 -1.03451 2.72272
RightArm  -22.4957 -1.49598 0.216835
RightForeArm  -1.21303 -0.0399321 2.25015
RightHand  -0.980043 2.16603 -15.1873
LeftUpLeg  0.426697 3.88347 0.0293101
LeftLeg  5.80911 11.7159 -2.14575
LeftFoot  -2.52133 -0.001414 0.226552
LeftToes  1.42787e-010 7.94111e-011 2.6399e-011
502
root  73.0632 40.2471 -1.90255 -106.305 -87.0058 101.424
RightUpLeg  -1.40091 -9.88311 -5.86128
RightLeg  9.92989 -2.56031 2.95103
RightFoot  -5.62447 -0.0384715 0.14572
RightToes  2.32829e-010 0 -3.6325e-017
Spine  7.32618 -0.332927 -0.476997
Spine1  -1.90064 -0.146253 -0.759491
HEad  -4.57433 4.86419 1.52128
LeftShoulder1  0.636388 -3.01805 -1.48135
LeftArm  -16.4773 7.88073 -1.04661
LeftForeArm  0.122251 2.00477 -2.08357
LeftHand  -0.244104 0.0205437 5.32207
RightShoulder  0.245632 -1.27681 2.96408
RightArm  -22.5598 -1.14872 0.0855797
RightForeArm  -1.04828 -0.082395 2.26122
RightHand  -1.02687 2.51577 -15.2213
LeftUpLeg  0.307413 3.80635 -0.0768807
LeftLeg  5.88451 11.696 -2.05726
LeftFoot  -2.54976 -0.00907929 0.341629
LeftToes  1.42787e-010 7.94111e-011 2.6399e-011
